<?xml version="1.0" encoding="UTF-8"?><svg xmlns="http://www.w3.org/2000/svg" viewBox="0 0 420.32 203.36"><defs><style>.d{fill:#231f20;}</style></defs><g id="a"/><g id="b"><g id="c"><g><path class="d" d="M91.92,80.77c.83-1.15,1.24-2.2,1.24-3.16s-.29-2.23-.86-3.83l-19.51-57c-.64-1.59-1.26-2.93-1.86-4.02-.61-1.08-1.52-2.26-2.73-3.54l.48-.38c1.15,1.15,2.33,1.88,3.54,2.2,1.21,.32,3,.48,5.36,.48s4.11-.16,5.26-.48c1.15-.32,2.3-1.05,3.44-2.2l.29,.38c-.89,1.15-1.36,2.25-1.39,3.3-.03,1.05,.24,2.41,.81,4.06l12.15,37.49c1.08,3.19,1.88,5.82,2.39,7.89,.51,2.07,.86,4.19,1.05,6.36h.38c.32-1.91,.7-3.79,1.15-5.64,.45-1.85,1.12-4.17,2.01-6.98l.48-1.53,12.34-37.59v-.1c.51-1.78,.75-3.16,.72-4.11-.03-.96-.53-2.01-1.48-3.16l.38-.38c1.15,1.15,2.3,1.88,3.44,2.2,1.15,.32,2.87,.48,5.17,.48s3.98-.16,5.26-.48c1.27-.32,2.49-1.05,3.63-2.2l.38,.38c-1.21,1.34-2.1,2.52-2.68,3.54-.57,1.02-1.15,2.36-1.72,4.02l-20.37,57.19-.1,.19c-.57,1.47-.85,2.65-.81,3.54,.03,.89,.43,1.91,1.2,3.06l-.48,.29c-.96-1.15-2.04-1.86-3.25-2.15-1.21-.29-3.16-.43-5.83-.43s-4.61,.14-5.79,.43c-1.18,.29-2.25,1-3.2,2.15l-.48-.29Z"/><path class="d" d="M135.39,24.72c1.27-1.4,2.06-2.63,2.34-3.68,.29-1.05,.43-2.69,.43-4.93s-.14-3.89-.43-4.97c-.29-1.08-1.07-2.3-2.34-3.63l.29-.38c1.4,1.28,2.61,2.06,3.63,2.34,1.02,.29,2.74,.43,5.16,.43s4.24-.14,5.26-.43c1.02-.29,2.17-1.07,3.44-2.34l.48,.38c-1.28,1.34-2.06,2.57-2.34,3.68-.29,1.12-.43,2.76-.43,4.93s.14,3.89,.43,4.97c.29,1.08,1.07,2.3,2.34,3.63l-.48,.38c-1.28-1.21-2.42-1.96-3.44-2.25-1.02-.29-2.77-.43-5.26-.43s-4.15,.14-5.16,.43c-1.02,.29-2.23,1.04-3.63,2.25l-.29-.38Zm8.9,53.75c-1.91,0-3.35,.16-4.3,.48-.96,.32-2.01,1.05-3.16,2.2l-.38-.38c1.08-1.28,1.78-2.34,2.1-3.2,.32-.86,.48-2.25,.48-4.16V34.96c0-1.91-.16-3.3-.48-4.16-.32-.86-1.02-1.93-2.1-3.2l.38-.38c1.15,1.15,2.2,1.88,3.16,2.2,.96,.32,2.39,.48,4.3,.48h.57c1.91,0,3.35-.16,4.3-.48,.96-.32,2.01-1.05,3.16-2.2l.38,.38c-1.15,1.28-1.87,2.34-2.15,3.2-.29,.86-.43,2.25-.43,4.16v38.45c0,1.91,.14,3.3,.43,4.16,.29,.86,1,1.93,2.15,3.2l-.38,.38c-1.15-1.15-2.2-1.88-3.16-2.2-.96-.32-2.39-.48-4.3-.48h-.57Z"/><path class="d" d="M179.53,79.91c-5.61,0-10.3-1.16-14.06-3.49-3.76-2.33-6.38-5.5-7.84-9.52l-.57-1.82c-.32-.96-.65-1.79-1-2.49-.35-.7-.85-1.43-1.48-2.2l.48-.48c.83,1.08,1.69,1.74,2.58,1.96,.89,.22,2.52,.33,4.88,.33s3.87-.11,4.73-.33c.86-.22,1.71-.81,2.53-1.77l.48,.29c-1.34,1.79-1.47,3.79-.38,6.03,.77,1.47,2.01,2.63,3.73,3.49,1.72,.86,3.76,1.29,6.12,1.29,2.93,0,5.21-.57,6.84-1.72s2.44-2.68,2.44-4.59c0-2.1-.78-3.7-2.34-4.78-1.56-1.08-4.13-1.88-7.7-2.39l-6.41-.96c-4.53-.7-8.02-2.2-10.47-4.49-2.46-2.3-3.68-5.39-3.68-9.28,0-2.93,.83-5.55,2.49-7.84,1.66-2.3,4-4.06,7.03-5.31,3.03-1.24,6.52-1.87,10.47-1.87,4.97,0,9.09,.97,12.34,2.92,3.25,1.95,5.55,4.64,6.89,8.08l.57,1.82c.45,1.08,.84,1.98,1.2,2.68,.35,.7,.78,1.37,1.29,2.01l-.48,.38c-.96-1.08-1.95-1.77-2.96-2.06-1.02-.29-2.52-.43-4.5-.43-1.85,0-3.22,.13-4.11,.38-.89,.26-1.75,.83-2.58,1.72l-.38-.29c.83-1.08,1.27-2.02,1.34-2.82,.06-.8-.26-1.74-.96-2.82-.77-1.08-1.83-1.94-3.2-2.58-1.37-.64-3.01-.96-4.93-.96-2.62,0-4.7,.53-6.26,1.58-1.56,1.05-2.34,2.47-2.34,4.26,0,1.4,.46,2.53,1.39,3.4,.92,.86,2.47,1.45,4.64,1.77l8.03,1.34c5.36,.89,9.53,2.58,12.53,5.07,3,2.49,4.5,6.09,4.5,10.81,0,4.97-1.95,8.83-5.83,11.57-3.89,2.74-8.89,4.11-15.02,4.11Z"/><path class="d" d="M203.56,24.72c1.27-1.4,2.06-2.63,2.34-3.68,.29-1.05,.43-2.69,.43-4.93s-.14-3.89-.43-4.97c-.29-1.08-1.07-2.3-2.34-3.63l.29-.38c1.4,1.28,2.61,2.06,3.63,2.34,1.02,.29,2.74,.43,5.16,.43s4.24-.14,5.26-.43c1.02-.29,2.17-1.07,3.44-2.34l.48,.38c-1.28,1.34-2.06,2.57-2.34,3.68-.29,1.12-.43,2.76-.43,4.93s.14,3.89,.43,4.97c.29,1.08,1.07,2.3,2.34,3.63l-.48,.38c-1.28-1.21-2.42-1.96-3.44-2.25-1.02-.29-2.77-.43-5.26-.43s-4.15,.14-5.16,.43c-1.02,.29-2.23,1.04-3.63,2.25l-.29-.38Zm8.9,53.75c-1.91,0-3.35,.16-4.3,.48-.96,.32-2.01,1.05-3.16,2.2l-.38-.38c1.08-1.28,1.78-2.34,2.1-3.2,.32-.86,.48-2.25,.48-4.16V34.96c0-1.91-.16-3.3-.48-4.16-.32-.86-1.02-1.93-2.1-3.2l.38-.38c1.15,1.15,2.2,1.88,3.16,2.2,.96,.32,2.39,.48,4.3,.48h.57c1.91,0,3.35-.16,4.3-.48,.96-.32,2.01-1.05,3.16-2.2l.38,.38c-1.15,1.28-1.87,2.34-2.15,3.2-.29,.86-.43,2.25-.43,4.16v38.45c0,1.91,.14,3.3,.43,4.16,.29,.86,1,1.93,2.15,3.2l-.38,.38c-1.15-1.15-2.2-1.88-3.16-2.2-.96-.32-2.39-.48-4.3-.48h-.57Z"/><path class="d" d="M254.32,79.91c-3.57,0-6.7-.76-9.37-2.29s-4.69-3.73-6.03-6.6v2.39c.06,1.91,.27,3.29,.62,4.11,.35,.83,1.1,1.85,2.25,3.06l-.38,.57c-1.21-1.21-2.31-1.96-3.3-2.25-.99-.29-2.41-.43-4.26-.43h-.57c-1.91,0-3.35,.16-4.3,.48-.96,.32-2.01,1.05-3.16,2.2l-.38-.38c1.08-1.28,1.79-2.34,2.1-3.2,.32-.86,.48-2.25,.48-4.16V16.59c0-1.91-.16-3.3-.48-4.16-.32-.86-1.02-1.93-2.1-3.2l.38-.38c1.15,1.15,2.2,1.88,3.16,2.2,.96,.32,2.39,.48,4.3,.48h1.05c1.91,0,3.35-.16,4.3-.48,.96-.32,2.01-1.05,3.16-2.2l.38,.38c-1.08,1.28-1.79,2.34-2.1,3.2-.32,.86-.48,2.25-.48,4.16v8.7c0,3.89-.29,7.56-.86,11l.38,.1c1.15-2.49,3.03-4.51,5.64-6.07,2.61-1.56,5.8-2.34,9.56-2.34,4.08,0,7.71,.99,10.9,2.96,3.19,1.98,5.71,4.88,7.56,8.7,1.85,3.83,2.77,8.35,2.77,13.58s-.91,10.16-2.73,14.2c-1.82,4.05-4.34,7.14-7.56,9.28-3.22,2.14-6.87,3.2-10.95,3.2Zm-2.77-9.28c3.89,0,6.92-1.56,9.09-4.69,2.17-3.12,3.25-7.3,3.25-12.53s-1.07-8.94-3.2-11.91c-2.14-2.97-5.05-4.45-8.75-4.45-3.89,0-7,1.42-9.33,4.26-2.33,2.84-3.49,7.03-3.49,12.58,0,5.1,1.1,9.17,3.3,12.19,2.2,3.03,5.24,4.54,9.13,4.54Z"/><path class="d" d="M288.08,78.48c-1.91,0-3.35,.16-4.3,.48-.96,.32-2.01,1.05-3.16,2.2l-.38-.38c1.08-1.28,1.79-2.34,2.1-3.2,.32-.86,.48-2.25,.48-4.16V16.59c0-1.91-.16-3.3-.48-4.16-.32-.86-1.02-1.93-2.1-3.2l.38-.38c1.15,1.15,2.2,1.88,3.16,2.2,.96,.32,2.39,.48,4.3,.48h.96c1.91,0,3.35-.16,4.3-.48,.96-.32,2.01-1.05,3.16-2.2l.38,.38c-1.08,1.28-1.79,2.34-2.1,3.2-.32,.86-.48,2.25-.48,4.16v56.81c0,1.91,.16,3.3,.48,4.16,.32,.86,1.02,1.93,2.1,3.2l-.38,.38c-1.15-1.15-2.2-1.88-3.16-2.2-.96-.32-2.39-.48-4.3-.48h-.96Z"/><path class="d" d="M325.57,79.91c-4.97,0-9.29-1.07-12.96-3.2-3.67-2.14-6.47-5.17-8.42-9.09-1.95-3.92-2.92-8.46-2.92-13.63,0-5.42,1.08-10.09,3.25-14.01,2.17-3.92,5.1-6.9,8.8-8.94,3.7-2.04,7.78-3.06,12.24-3.06,7.27,0,12.85,2.33,16.74,6.98,3.89,4.66,5.83,10.81,5.83,18.46,0,1.4-.09,2.68-.29,3.83h-41.13v-8.89h35.01l-5.17,1.72c0-4.02-.99-7.27-2.96-9.76-1.98-2.49-4.66-3.73-8.03-3.73-4.15,0-7.29,1.53-9.42,4.59-2.14,3.06-3.2,7.14-3.2,12.24,0,5.8,1.12,10.15,3.35,13.06,2.23,2.9,5.48,4.35,9.76,4.35,2.1,0,4-.46,5.69-1.39,1.69-.92,2.76-2.12,3.2-3.59,.45-1.47,.1-3.09-1.05-4.88l.38-.38c1.08,1.15,2.07,1.86,2.96,2.15,.89,.29,2.33,.43,4.3,.43,2.1,0,3.62-.13,4.54-.38,.92-.25,1.9-.99,2.92-2.2l.38,.38c-.51,.64-.91,1.28-1.2,1.91-.29,.64-.56,1.47-.81,2.49-1.34,4.72-3.91,8.32-7.7,10.81-3.79,2.49-8.5,3.73-14.11,3.73Z"/><path class="d" d="M12.82,174.48c-1.91,0-3.35,.16-4.3,.48-.96,.32-2.01,1.05-3.16,2.2l-.38-.38c1.15-1.28,1.86-2.34,2.15-3.2,.29-.86,.43-2.25,.43-4.16v-56.81c0-1.91-.14-3.3-.43-4.16-.29-.86-1-1.93-2.15-3.2l.38-.38c1.15,1.15,2.2,1.88,3.16,2.2,.96,.32,2.39,.48,4.3,.48h1.91c1.91,0,3.35-.16,4.3-.48,.96-.32,2.01-1.05,3.16-2.2l.38,.38c-1.08,1.28-1.79,2.34-2.1,3.2-.32,.86-.48,2.25-.48,4.16v46c0,2.49-.22,4.3-.67,5.45,1.15-.45,3-.67,5.55-.67h24.2c1.91,0,3.3-.14,4.16-.43,.86-.29,1.9-1,3.11-2.15l.38,.38c-1.15,1.15-1.88,2.2-2.2,3.16-.32,.96-.48,2.39-.48,4.3v.57c0,1.91,.16,3.35,.48,4.3,.32,.96,1.05,2.01,2.2,3.16l-.38,.38c-1.21-1.08-2.25-1.79-3.11-2.1-.86-.32-2.25-.48-4.16-.48H12.82Z"/><path class="d" d="M75.42,175.91c-5.1,0-9.26-1.29-12.48-3.87-3.22-2.58-4.83-6.39-4.83-11.43,0-4.53,1.5-8.02,4.5-10.47,3-2.45,7.2-3.97,12.62-4.54l8.7-.96c2.3-.25,3.97-.76,5.02-1.53,1.05-.76,1.58-1.91,1.58-3.44,0-2.23-.78-3.97-2.34-5.21-1.56-1.24-3.78-1.87-6.65-1.87-2.36,0-4.27,.53-5.74,1.58-1.47,1.05-2.2,2.38-2.2,3.97,0,.57,.14,1.2,.43,1.87,.29,.67,.75,1.32,1.39,1.96l-.38,.29c-1.08-1.02-2.04-1.66-2.87-1.91-.83-.25-2.17-.38-4.02-.38h-1.82c-1.66,0-2.92,.14-3.78,.43s-1.83,.94-2.92,1.96l-.38-.38c.64-.7,1.1-1.37,1.39-2.01,.29-.64,.49-1.37,.62-2.2,.77-4.59,2.93-8.03,6.5-10.33,3.57-2.29,8.13-3.44,13.68-3.44,6.12,0,10.95,1.36,14.49,4.06,3.54,2.71,5.31,6.93,5.31,12.67v20.37c0,1.21,.25,2.17,.77,2.87,.51,.7,1.31,1.05,2.39,1.05,.77,0,1.48-.17,2.15-.53,.67-.35,1.55-1.04,2.63-2.06l.29,.38c-.96,1.15-1.61,2.15-1.96,3.01-.35,.86-.53,2.02-.53,3.49v1.05c0,1.47,.17,2.62,.53,3.44,.35,.83,1,1.82,1.96,2.97l-.29,.29c-1.15-1.08-2.18-1.79-3.11-2.1-.92-.32-2.25-.48-3.97-.48h-1.05c-2.62,0-4.8-.64-6.55-1.91-1.75-1.27-2.69-3.22-2.82-5.83h-.1c-.96,2.68-2.87,4.88-5.74,6.6s-6.35,2.58-10.42,2.58Zm2.49-9.09c2.3,0,4.41-.48,6.36-1.43,1.94-.96,3.46-2.31,4.54-4.07,1.08-1.75,1.63-3.68,1.63-5.79v-.57c0-2.49,.25-4.27,.77-5.36v-.1c-1.02,1.08-2.1,1.83-3.25,2.25-1.15,.42-3.06,.85-5.74,1.29l-5.07,.86c-2.3,.32-4.05,1.04-5.26,2.15-1.21,1.12-1.82,2.53-1.82,4.26,0,2.1,.73,3.71,2.2,4.83,1.47,1.12,3.35,1.67,5.64,1.67Z"/><path class="d" d="M118.05,174.48c-1.91,0-3.35,.16-4.3,.48-.96,.32-2.01,1.05-3.16,2.2l-.38-.38c1.08-1.28,1.78-2.34,2.1-3.2,.32-.86,.48-2.25,.48-4.16v-39.21c0-1.91-.16-3.3-.48-4.16-.32-.86-1.02-1.93-2.1-3.2l.38-.38c1.15,1.15,2.2,1.88,3.16,2.2,.96,.32,2.39,.48,4.3,.48h.29c1.91,0,3.35-.16,4.3-.48,.96-.32,2.01-1.05,3.16-2.2l.38,.38c-1.08,1.28-1.79,2.34-2.1,3.2-.32,.86-.51,2.25-.57,4.16l-.1,2.58h.29c1.02-2.36,2.8-4.42,5.36-6.17,2.55-1.75,5.8-2.63,9.76-2.63,4.97,0,8.97,1.62,12,4.88,3.03,3.25,4.54,7.68,4.54,13.29v27.26c0,1.91,.16,3.3,.48,4.16,.32,.86,1.02,1.93,2.1,3.2l-.38,.38c-1.15-1.15-2.2-1.88-3.16-2.2-.96-.32-2.39-.48-4.3-.48h-.77c-1.91,0-3.35,.16-4.3,.48-.96,.32-2.01,1.05-3.16,2.2l-.38-.38c1.08-1.28,1.78-2.34,2.1-3.2,.32-.86,.48-2.25,.48-4.16v-24.77c0-3.51-.75-6.26-2.25-8.27-1.5-2.01-3.68-3.01-6.55-3.01-3.32,0-6.01,1.07-8.08,3.2-2.07,2.14-3.11,4.86-3.11,8.18v24.68c0,1.91,.16,3.3,.48,4.16,.32,.86,1.02,1.93,2.1,3.2l-.38,.38c-1.15-1.15-2.2-1.88-3.16-2.2-.96-.32-2.39-.48-4.3-.48h-.77Z"/><path class="d" d="M185.09,194.94c-5.36,0-9.84-1.07-13.44-3.2-3.6-2.14-6.04-5.12-7.32-8.94l-.38-1.24c-.38-1.08-.77-2.04-1.15-2.87-.38-.83-.92-1.69-1.63-2.58l.38-.38c.96,1.08,1.94,1.78,2.96,2.1,1.02,.32,2.65,.48,4.88,.48,1.98,0,3.43-.14,4.35-.43,.92-.29,1.83-.91,2.73-1.87l.38,.38c-.83,1.15-1.28,2.15-1.34,3.01-.06,.86,.22,1.8,.86,2.82,.7,1.21,1.85,2.15,3.44,2.82,1.59,.67,3.47,1,5.64,1,3.83,0,6.71-1.05,8.66-3.16,1.94-2.1,2.92-5.07,2.92-8.9v-1.91c0-1.79,.13-3.38,.38-4.78h-.19c-1.02,2.29-2.66,4.11-4.93,5.45-2.26,1.34-5.09,2.01-8.46,2.01-4.15,0-7.86-1-11.14-3.01-3.29-2.01-5.87-4.93-7.75-8.75-1.88-3.83-2.82-8.38-2.82-13.68s.99-10.15,2.96-14.01c1.98-3.86,4.61-6.73,7.89-8.61,3.28-1.88,6.9-2.82,10.86-2.82,3.25,0,6.07,.73,8.46,2.2,2.39,1.47,4.06,3.44,5.02,5.93v-1.82c0-1.91-.16-3.3-.48-4.16-.32-.86-1.02-1.93-2.1-3.2l.38-.38c1.15,1.15,2.2,1.88,3.16,2.2,.96,.32,2.39,.48,4.3,.48h.38c1.91,0,3.35-.16,4.3-.48,.96-.32,2.01-1.05,3.16-2.2l.38,.38c-1.08,1.28-1.79,2.34-2.1,3.2-.32,.86-.48,2.25-.48,4.16v43.52c0,7.01-2.06,12.31-6.17,15.88-4.11,3.57-9.77,5.36-16.98,5.36Zm.57-29.27c3.89,0,6.85-1.47,8.89-4.4,2.04-2.93,3.06-7.01,3.06-12.24s-1.08-8.88-3.25-11.72c-2.17-2.84-4.94-4.26-8.32-4.26-3.63,0-6.57,1.43-8.8,4.3-2.23,2.87-3.35,6.76-3.35,11.67s1.05,9.07,3.16,12.1,4.97,4.54,8.61,4.54Z"/><path class="d" d="M234.73,175.91c-5.29,0-9.5-1.53-12.62-4.59-3.12-3.06-4.69-7.33-4.69-12.82v-28.31c0-1.91-.16-3.3-.48-4.16-.32-.86-1.02-1.93-2.1-3.2l.38-.38c1.15,1.15,2.2,1.88,3.16,2.2,.96,.32,2.39,.48,4.3,.48h1.15c1.91,0,3.35-.16,4.3-.48,.96-.32,2.01-1.05,3.16-2.2l.38,.38c-1.15,1.28-1.87,2.34-2.15,3.2-.29,.86-.43,2.25-.43,4.16v26.3c0,3.32,.76,5.83,2.29,7.56,1.53,1.72,3.73,2.58,6.6,2.58,3.12,0,5.62-1.07,7.51-3.2,1.88-2.14,2.82-4.93,2.82-8.37v-24.87c0-1.91-.14-3.3-.43-4.16-.29-.86-1-1.93-2.15-3.2l.38-.38c1.15,1.15,2.2,1.88,3.16,2.2,.96,.32,2.39,.48,4.3,.48h.86c1.91,0,3.35-.16,4.3-.48,.96-.32,2.01-1.05,3.16-2.2l.38,.38c-1.09,1.28-1.79,2.34-2.1,3.2-.32,.86-.48,2.25-.48,4.16v39.21c0,1.91,.16,3.3,.48,4.16,.32,.86,1.02,1.93,2.1,3.2l-.38,.38c-1.15-1.15-2.2-1.88-3.16-2.2-.96-.32-2.39-.48-4.3-.48h-.29c-1.91,0-3.35,.16-4.3,.48-.96,.32-2.01,1.05-3.16,2.2l-.38-.38c1.15-1.28,1.87-2.34,2.15-3.2,.29-.86,.43-2.25,.43-4.16v-1.91c-.96,2.36-2.65,4.35-5.07,5.98-2.42,1.63-5.45,2.44-9.09,2.44Z"/><path class="d" d="M283.64,175.91c-5.1,0-9.26-1.29-12.48-3.87-3.22-2.58-4.83-6.39-4.83-11.43,0-4.53,1.5-8.02,4.5-10.47,3-2.45,7.21-3.97,12.62-4.54l8.7-.96c2.3-.25,3.97-.76,5.02-1.53,1.05-.76,1.58-1.91,1.58-3.44,0-2.23-.78-3.97-2.34-5.21-1.56-1.24-3.78-1.87-6.65-1.87-2.36,0-4.27,.53-5.74,1.58-1.47,1.05-2.2,2.38-2.2,3.97,0,.57,.14,1.2,.43,1.87,.29,.67,.75,1.32,1.39,1.96l-.38,.29c-1.08-1.02-2.04-1.66-2.87-1.91-.83-.25-2.17-.38-4.02-.38h-1.82c-1.66,0-2.92,.14-3.78,.43-.86,.29-1.83,.94-2.92,1.96l-.38-.38c.64-.7,1.1-1.37,1.39-2.01,.29-.64,.49-1.37,.62-2.2,.76-4.59,2.93-8.03,6.5-10.33,3.57-2.29,8.13-3.44,13.68-3.44,6.12,0,10.95,1.36,14.49,4.06,3.54,2.71,5.31,6.93,5.31,12.67v20.37c0,1.21,.25,2.17,.77,2.87,.51,.7,1.31,1.05,2.39,1.05,.77,0,1.48-.17,2.15-.53,.67-.35,1.54-1.04,2.63-2.06l.29,.38c-.96,1.15-1.61,2.15-1.96,3.01-.35,.86-.53,2.02-.53,3.49v1.05c0,1.47,.18,2.62,.53,3.44,.35,.83,1,1.82,1.96,2.97l-.29,.29c-1.15-1.08-2.18-1.79-3.11-2.1-.92-.32-2.25-.48-3.97-.48h-1.05c-2.62,0-4.8-.64-6.55-1.91-1.75-1.27-2.7-3.22-2.82-5.83h-.1c-.96,2.68-2.87,4.88-5.74,6.6s-6.35,2.58-10.42,2.58Zm2.49-9.09c2.3,0,4.42-.48,6.36-1.43,1.94-.96,3.46-2.31,4.54-4.07,1.08-1.75,1.63-3.68,1.63-5.79v-.57c0-2.49,.25-4.27,.77-5.36v-.1c-1.02,1.08-2.1,1.83-3.25,2.25-1.15,.42-3.06,.85-5.74,1.29l-5.07,.86c-2.3,.32-4.05,1.04-5.26,2.15-1.21,1.12-1.82,2.53-1.82,4.26,0,2.1,.73,3.71,2.2,4.83,1.47,1.12,3.35,1.67,5.64,1.67Z"/><path class="d" d="M340.38,194.94c-5.36,0-9.84-1.07-13.44-3.2-3.6-2.14-6.04-5.12-7.32-8.94l-.38-1.24c-.38-1.08-.76-2.04-1.15-2.87-.38-.83-.92-1.69-1.63-2.58l.38-.38c.96,1.08,1.94,1.78,2.96,2.1,1.02,.32,2.65,.48,4.88,.48,1.98,0,3.43-.14,4.35-.43,.92-.29,1.83-.91,2.73-1.87l.38,.38c-.83,1.15-1.28,2.15-1.34,3.01-.06,.86,.22,1.8,.86,2.82,.7,1.21,1.85,2.15,3.44,2.82,1.59,.67,3.47,1,5.64,1,3.83,0,6.71-1.05,8.66-3.16,1.94-2.1,2.92-5.07,2.92-8.9v-1.91c0-1.79,.13-3.38,.38-4.78h-.19c-1.02,2.29-2.66,4.11-4.93,5.45-2.26,1.34-5.08,2.01-8.46,2.01-4.15,0-7.86-1-11.14-3.01-3.29-2.01-5.87-4.93-7.75-8.75-1.88-3.83-2.82-8.38-2.82-13.68s.99-10.15,2.96-14.01c1.98-3.86,4.61-6.73,7.89-8.61,3.28-1.88,6.9-2.82,10.86-2.82,3.25,0,6.07,.73,8.46,2.2,2.39,1.47,4.07,3.44,5.02,5.93v-1.82c0-1.91-.16-3.3-.48-4.16-.32-.86-1.02-1.93-2.1-3.2l.38-.38c1.15,1.15,2.2,1.88,3.16,2.2,.96,.32,2.39,.48,4.3,.48h.38c1.91,0,3.35-.16,4.3-.48,.96-.32,2.01-1.05,3.16-2.2l.38,.38c-1.08,1.28-1.79,2.34-2.1,3.2-.32,.86-.48,2.25-.48,4.16v43.52c0,7.01-2.06,12.31-6.17,15.88-4.11,3.57-9.77,5.36-16.98,5.36Zm.57-29.27c3.89,0,6.85-1.47,8.9-4.4,2.04-2.93,3.06-7.01,3.06-12.24s-1.08-8.88-3.25-11.72c-2.17-2.84-4.94-4.26-8.32-4.26-3.63,0-6.57,1.43-8.8,4.3-2.23,2.87-3.35,6.76-3.35,11.67s1.05,9.07,3.16,12.1,4.97,4.54,8.61,4.54Z"/><path class="d" d="M394.83,175.91c-4.97,0-9.29-1.07-12.96-3.2-3.67-2.14-6.47-5.17-8.42-9.09-1.95-3.92-2.92-8.46-2.92-13.63,0-5.42,1.08-10.09,3.25-14.01,2.17-3.92,5.1-6.9,8.8-8.94,3.7-2.04,7.78-3.06,12.24-3.06,7.27,0,12.85,2.33,16.74,6.98,3.89,4.66,5.83,10.81,5.83,18.46,0,1.4-.09,2.68-.29,3.83h-41.13v-8.9h35.01l-5.17,1.72c0-4.02-.99-7.27-2.96-9.75-1.98-2.49-4.66-3.73-8.03-3.73-4.15,0-7.29,1.53-9.42,4.59-2.14,3.06-3.2,7.14-3.2,12.24,0,5.8,1.12,10.15,3.35,13.06,2.23,2.9,5.48,4.35,9.76,4.35,2.1,0,4-.46,5.69-1.39,1.69-.92,2.76-2.12,3.2-3.59,.45-1.47,.1-3.09-1.05-4.88l.38-.38c1.08,1.15,2.07,1.86,2.96,2.15,.89,.29,2.33,.43,4.3,.43,2.1,0,3.62-.13,4.54-.38,.92-.25,1.9-.99,2.92-2.2l.38,.38c-.51,.64-.91,1.28-1.2,1.91-.29,.64-.56,1.47-.81,2.49-1.34,4.72-3.91,8.32-7.7,10.81-3.79,2.49-8.5,3.73-14.11,3.73Z"/></g></g></g></svg>